<svg width="30" height="28" viewBox="0 0 30 28" fill="none" xmlns="http://www.w3.org/2000/svg">
<g filter="url(#filter0_d_57_1115)">
<path d="M22.0714 3.14307H7.9285C6.19275 3.14307 4.78564 4.55017 4.78564 6.28592V15.7145C4.78564 17.4502 6.19275 18.8574 7.9285 18.8574H22.0714C23.8071 18.8574 25.2142 17.4502 25.2142 15.7145V6.28592C25.2142 4.55017 23.8071 3.14307 22.0714 3.14307Z" stroke="black" stroke-linecap="round" stroke-linejoin="round"/>
<path d="M12.3443 14.6459V8.04593C12.341 7.9345 12.3682 7.82429 12.4229 7.72716C12.4776 7.63003 12.5577 7.54966 12.6547 7.4947C12.7517 7.43974 12.8618 7.41227 12.9733 7.41526C13.0847 7.41824 13.1932 7.45157 13.2871 7.51164L18.9443 10.8116C19.0388 10.8671 19.1172 10.9463 19.1716 11.0414C19.2261 11.1365 19.2547 11.2442 19.2547 11.3538C19.2547 11.4634 19.2261 11.5711 19.1716 11.6662C19.1172 11.7613 19.0388 11.8405 18.9443 11.8959L13.2871 15.1959C13.1911 15.2513 13.0822 15.2804 12.9714 15.2802C12.8606 15.2799 12.7518 15.2504 12.6561 15.1945C12.5604 15.1387 12.4811 15.0585 12.4263 14.9622C12.3716 14.8659 12.3433 14.7567 12.3443 14.6459Z" stroke="black" stroke-linecap="round" stroke-linejoin="round"/>
</g>
<defs>
<filter id="filter0_d_57_1115" x="0" y="0" width="30" height="30" filterUnits="userSpaceOnUse" color-interpolation-filters="sRGB">
<feFlood flood-opacity="0" result="BackgroundImageFix"/>
<feColorMatrix in="SourceAlpha" type="matrix" values="0 0 0 0 0 0 0 0 0 0 0 0 0 0 0 0 0 0 127 0" result="hardAlpha"/>
<feOffset dy="4"/>
<feGaussianBlur stdDeviation="2"/>
<feComposite in2="hardAlpha" operator="out"/>
<feColorMatrix type="matrix" values="0 0 0 0 0 0 0 0 0 0 0 0 0 0 0 0 0 0 0.25 0"/>
<feBlend mode="normal" in2="BackgroundImageFix" result="effect1_dropShadow_57_1115"/>
<feBlend mode="normal" in="SourceGraphic" in2="effect1_dropShadow_57_1115" result="shape"/>
</filter>
</defs>
</svg>
