<svg width="23" height="23" viewBox="0 0 23 23" fill="none" xmlns="http://www.w3.org/2000/svg">
<g clip-path="url(#clip0_70_2844)">
<path d="M18.7787 3.56592H4.63584C2.90009 3.56592 1.49298 4.97302 1.49298 6.70878V16.1373C1.49298 17.8731 2.90009 19.2802 4.63584 19.2802H18.7787C20.5145 19.2802 21.9216 17.8731 21.9216 16.1373V6.70878C21.9216 4.97302 20.5145 3.56592 18.7787 3.56592Z" stroke="black" stroke-linecap="round" stroke-linejoin="round"/>
<path d="M9.05153 15.0688V8.46878C9.04826 8.35735 9.07543 8.24714 9.13013 8.15001C9.18483 8.05288 9.26499 7.97251 9.36198 7.91755C9.45897 7.86259 9.56911 7.83512 9.68054 7.83811C9.79198 7.8411 9.90049 7.87442 9.99439 7.93449L15.6515 11.2345C15.7461 11.29 15.8244 11.3692 15.8789 11.4643C15.9334 11.5594 15.962 11.667 15.962 11.7766C15.962 11.8862 15.9334 11.9939 15.8789 12.089C15.8244 12.1841 15.7461 12.2633 15.6515 12.3188L9.99439 15.6188C9.89842 15.6742 9.78951 15.7033 9.67869 15.703C9.56787 15.7028 9.45909 15.6732 9.36336 15.6174C9.26764 15.5615 9.18838 15.4814 9.13362 15.385C9.07886 15.2887 9.05054 15.1796 9.05153 15.0688Z" stroke="black" stroke-linecap="round" stroke-linejoin="round"/>
</g>
<defs>
<clipPath id="clip0_70_2844">
<rect width="22" height="22" fill="white" transform="translate(0.707275 0.422852)"/>
</clipPath>
</defs>
</svg>
